<?xml version="1.0" encoding="UTF-8"?>
<svg xmlns="http://www.w3.org/2000/svg" xmlns:xlink="http://www.w3.org/1999/xlink" width="134pt" height="55pt" viewBox="0 0 134 55" version="1.1">
<g id="surface1">
<path style=" stroke:none;fill-rule:nonzero;fill:rgb(100%,100%,100%);fill-opacity:1;" d="M 67.414062 53.230469 C 53.472656 53.230469 42.171875 41.925781 42.171875 27.984375 C 42.171875 17.402344 48.714844 8.414062 57.949219 4.664062 L 57.949219 10.753906 C 52.316406 14.105469 48.480469 20.269531 48.480469 27.449219 C 48.480469 38.203125 56.957031 46.921875 67.414062 46.921875 C 77.875 46.921875 86.347656 38.207031 86.347656 27.449219 C 86.347656 20.269531 82.515625 14.105469 76.882812 10.753906 L 76.882812 4.664062 C 86.117188 8.414062 92.660156 17.402344 92.660156 27.984375 C 92.660156 41.925781 81.355469 53.230469 67.414062 53.230469 Z M 67.414062 2.734375 C 69.15625 2.734375 70.570312 4.148438 70.570312 5.890625 L 70.570312 24.828125 C 70.570312 26.570312 69.15625 27.984375 67.414062 27.984375 C 65.671875 27.984375 64.261719 26.570312 64.261719 24.828125 L 64.261719 5.890625 C 64.261719 4.148438 65.671875 2.734375 67.414062 2.734375 Z M 67.414062 2.734375 "/>
</g>
</svg>
