<?xml version="1.0" encoding="UTF-8"?>
<svg xmlns="http://www.w3.org/2000/svg" xmlns:xlink="http://www.w3.org/1999/xlink" width="133pt" height="55pt" viewBox="0 0 133 55" version="1.1">
<g id="surface1">
<path style=" stroke:none;fill-rule:evenodd;fill:rgb(100%,100%,100%);fill-opacity:1;" d="M 62.617188 31.578125 C 62.636719 31.609375 62.65625 31.640625 62.675781 31.667969 C 62.566406 31.746094 62.453125 31.8125 62.355469 31.894531 C 60.488281 33.507812 58.613281 35.117188 56.765625 36.75 C 56.414062 37.0625 56.09375 37.433594 55.875 37.824219 C 55.050781 39.292969 55.28125 41.066406 56.628906 42.296875 C 57.625 43.207031 58.847656 43.613281 60.3125 43.542969 C 61.546875 43.480469 62.542969 43.035156 63.390625 42.296875 C 65.785156 40.210938 68.171875 38.113281 70.566406 36.027344 C 72.792969 34.085938 75.035156 32.160156 77.253906 30.214844 C 77.550781 29.957031 77.804688 29.640625 78 29.316406 C 78.390625 28.683594 78.507812 27.996094 78.453125 27.28125 C 78.398438 26.5625 78.175781 25.878906 77.644531 25.320312 C 77.113281 24.757812 76.523438 24.230469 75.929688 23.714844 C 71.546875 19.90625 67.164062 16.097656 62.757812 12.304688 C 61.699219 11.390625 60.34375 11.179688 58.902344 11.367188 C 57.789062 11.511719 56.898438 11.996094 56.171875 12.734375 C 55.527344 13.390625 55.171875 14.152344 55.105469 15 C 55 16.296875 55.542969 17.367188 56.609375 18.277344 C 58.574219 19.953125 60.507812 21.648438 62.457031 23.335938 C 62.542969 23.410156 62.621094 23.492188 62.757812 23.617188 C 62.550781 23.617188 62.417969 23.617188 62.285156 23.617188 C 55.761719 23.617188 49.238281 23.617188 42.714844 23.617188 C 42.597656 23.617188 42.480469 23.613281 42.367188 23.628906 C 41.238281 23.808594 40.308594 24.277344 39.554688 25.039062 C 38.546875 26.0625 38.320312 27.234375 38.621094 28.507812 C 38.820312 29.363281 39.382812 30.03125 40.136719 30.609375 C 41.007812 31.273438 42.027344 31.570312 43.152344 31.570312 C 49.507812 31.585938 55.859375 31.578125 62.214844 31.578125 C 62.347656 31.578125 62.484375 31.578125 62.617188 31.578125 Z M 82.871094 27.980469 C 82.871094 32.394531 82.867188 36.808594 82.875 41.226562 C 82.875 41.953125 82.488281 42.480469 81.847656 42.898438 C 81.371094 43.210938 80.808594 43.273438 80.246094 43.277344 C 78.847656 43.292969 77.449219 43.28125 76.050781 43.289062 C 75.804688 43.289062 75.550781 43.316406 75.308594 43.367188 C 74.265625 43.589844 73.421875 44.070312 72.75 44.800781 C 71.871094 45.753906 71.589844 46.835938 71.832031 48.015625 C 72.039062 49.007812 72.65625 49.808594 73.570312 50.425781 C 74.359375 50.960938 75.253906 51.246094 76.265625 51.246094 C 77.601562 51.242188 78.9375 51.261719 80.269531 51.238281 C 81.09375 51.21875 81.925781 51.164062 82.742188 51.070312 C 83.742188 50.957031 84.683594 50.652344 85.582031 50.265625 C 86.453125 49.890625 87.25 49.414062 87.992188 48.863281 C 89.117188 48.03125 90.039062 47.0625 90.753906 45.949219 C 91.710938 44.460938 92.109375 42.835938 92.109375 41.148438 C 92.125 32.675781 92.121094 24.203125 92.113281 15.730469 C 92.109375 14.992188 92.050781 14.253906 91.988281 13.519531 C 91.894531 12.453125 91.523438 11.449219 90.992188 10.488281 C 90.195312 9.042969 89.023438 7.863281 87.582031 6.871094 C 85.550781 5.46875 83.210938 4.832031 80.644531 4.785156 C 79.214844 4.757812 77.785156 4.773438 76.355469 4.78125 C 76.0625 4.785156 75.769531 4.824219 75.484375 4.867188 C 74.464844 5.023438 73.640625 5.472656 72.941406 6.128906 C 72.195312 6.832031 71.800781 7.664062 71.757812 8.605469 C 71.71875 9.410156 71.921875 10.171875 72.445312 10.855469 C 73.324219 12.011719 74.527344 12.699219 76.15625 12.734375 C 77.6875 12.769531 79.21875 12.777344 80.75 12.792969 C 81.828125 12.804688 82.882812 13.828125 82.878906 14.675781 C 82.863281 19.113281 82.871094 23.546875 82.871094 27.980469 Z M 82.871094 27.980469 "/>
<path style=" stroke:none;fill-rule:evenodd;fill:rgb(100%,100%,100%);fill-opacity:1;" d="M 62.617188 31.578125 C 62.484375 31.578125 62.347656 31.578125 62.214844 31.578125 C 55.859375 31.578125 49.507812 31.585938 43.152344 31.570312 C 42.027344 31.570312 41.007812 31.273438 40.136719 30.609375 C 39.382812 30.03125 38.820312 29.363281 38.621094 28.507812 C 38.320312 27.234375 38.546875 26.0625 39.554688 25.039062 C 40.308594 24.277344 41.238281 23.808594 42.367188 23.628906 C 42.480469 23.613281 42.597656 23.617188 42.714844 23.617188 C 49.238281 23.617188 55.761719 23.617188 62.285156 23.617188 C 62.417969 23.617188 62.550781 23.617188 62.757812 23.617188 C 62.621094 23.492188 62.542969 23.410156 62.457031 23.335938 C 60.507812 21.648438 58.574219 19.953125 56.609375 18.277344 C 55.542969 17.367188 55 16.296875 55.105469 15 C 55.171875 14.152344 55.527344 13.390625 56.171875 12.734375 C 56.898438 11.996094 57.792969 11.511719 58.902344 11.367188 C 60.34375 11.179688 61.699219 11.390625 62.757812 12.304688 C 67.164062 16.09375 71.546875 19.90625 75.929688 23.714844 C 76.523438 24.230469 77.113281 24.757812 77.644531 25.320312 C 78.175781 25.878906 78.398438 26.5625 78.453125 27.28125 C 78.507812 27.996094 78.390625 28.683594 78 29.316406 C 77.804688 29.640625 77.550781 29.957031 77.253906 30.214844 C 75.035156 32.160156 72.792969 34.085938 70.566406 36.027344 C 68.171875 38.113281 65.785156 40.210938 63.390625 42.296875 C 62.542969 43.035156 61.546875 43.480469 60.3125 43.542969 C 58.847656 43.613281 57.625 43.207031 56.628906 42.296875 C 55.28125 41.066406 55.050781 39.292969 55.875 37.824219 C 56.09375 37.433594 56.414062 37.0625 56.765625 36.75 C 58.613281 35.117188 60.488281 33.507812 62.355469 31.894531 C 62.453125 31.8125 62.566406 31.746094 62.675781 31.667969 C 62.65625 31.640625 62.636719 31.609375 62.617188 31.578125 Z M 62.617188 31.578125 "/>
<path style=" stroke:none;fill-rule:evenodd;fill:rgb(100%,100%,100%);fill-opacity:1;" d="M 82.871094 27.980469 C 82.871094 23.546875 82.863281 19.113281 82.878906 14.679688 C 82.882812 13.828125 81.828125 12.804688 80.75 12.792969 C 79.21875 12.777344 77.6875 12.769531 76.15625 12.734375 C 74.527344 12.699219 73.324219 12.011719 72.441406 10.855469 C 71.921875 10.171875 71.71875 9.410156 71.757812 8.605469 C 71.800781 7.664062 72.195312 6.832031 72.941406 6.128906 C 73.640625 5.472656 74.464844 5.027344 75.484375 4.867188 C 75.769531 4.824219 76.0625 4.785156 76.355469 4.78125 C 77.785156 4.773438 79.214844 4.757812 80.644531 4.785156 C 83.210938 4.832031 85.550781 5.46875 87.582031 6.871094 C 89.023438 7.863281 90.195312 9.042969 90.992188 10.488281 C 91.523438 11.449219 91.894531 12.453125 91.988281 13.519531 C 92.050781 14.253906 92.109375 14.992188 92.113281 15.730469 C 92.121094 24.203125 92.125 32.675781 92.109375 41.148438 C 92.109375 42.835938 91.710938 44.460938 90.753906 45.949219 C 90.039062 47.0625 89.117188 48.03125 87.992188 48.863281 C 87.246094 49.414062 86.453125 49.890625 85.582031 50.265625 C 84.683594 50.652344 83.742188 50.957031 82.742188 51.070312 C 81.925781 51.164062 81.09375 51.21875 80.269531 51.238281 C 78.9375 51.261719 77.601562 51.242188 76.265625 51.246094 C 75.253906 51.246094 74.359375 50.960938 73.570312 50.425781 C 72.65625 49.808594 72.039062 49.007812 71.832031 48.015625 C 71.589844 46.835938 71.871094 45.753906 72.75 44.800781 C 73.421875 44.070312 74.265625 43.589844 75.308594 43.367188 C 75.550781 43.316406 75.804688 43.289062 76.050781 43.289062 C 77.449219 43.28125 78.847656 43.292969 80.246094 43.277344 C 80.808594 43.273438 81.371094 43.210938 81.847656 42.898438 C 82.488281 42.480469 82.875 41.953125 82.875 41.226562 C 82.867188 36.808594 82.871094 32.394531 82.871094 27.980469 Z M 82.871094 27.980469 "/>
</g>
</svg>
