<?xml version="1.0" encoding="UTF-8"?>
<svg width="29px" height="36px" viewBox="0 0 29 36" version="1.1" xmlns="http://www.w3.org/2000/svg" xmlns:xlink="http://www.w3.org/1999/xlink">
    <!-- Generator: Sketch 47 (45396) - http://www.bohemiancoding.com/sketch -->
    <title>icon-age</title>
    <desc>Created with Sketch.</desc>
    <defs></defs>
    <g id="Symbols" stroke="none" stroke-width="1" fill="none" fill-rule="evenodd" opacity="0.5">
        <g id="Input/Icon/Age-Empty" transform="translate(-4.000000, 0.000000)" fill-rule="nonzero" fill="#FFFFFF">
            <g id="icon-age" transform="translate(4.000000, 0.000000)">
                <path d="M14,35.8 C7.2,35.8 0,33.8 0,30.1 L0,20.9 C0,18.3 3.9,16.1 10,15.4 L10.2,15.4 L10.2,11.8 C10.2,10.5 12.2,9.9 14,9.9 C15.8,9.9 17.8,10.5 17.8,11.8 L17.8,15.4 L18,15.4 C24.1,16.1 28.1,18.3 28.1,20.9 L28.1,30.1 C28,33.8 20.8,35.8 14,35.8 Z M1.4,30.1 C1.4,32.1 6.6,34.4 14,34.4 C21.4,34.4 26.6,32.1 26.6,30 L26.6,27.1 L26.3,27.2 C26,27.3 25.6,27.9 25.4,28.1 C24.9,28.8 24.3,29.5 23.6,29.9 C23.2,30.1 22.8,30.2 22.4,30.2 C21.9,30.2 21.5,30.1 21,30 L20.7,30 C20.3,29.9 19.9,29.9 19.5,29.9 C19.3,29.9 19.2,29.9 19,29.9 C18.3,30 17.8,30.3 17.2,30.6 C16.3,31.1 15.3,31.6 13.9,31.6 C12.5,31.6 11.5,31.1 10.6,30.5 C10,30.2 9.5,29.9 8.9,29.8 C8.8,29.8 8.6,29.8 8.5,29.8 C8.1,29.8 7.6,29.9 7.2,30 L7,30 C6.5,30.1 5.9,30.3 5.4,30.3 C5,30.3 4.6,30.2 4.3,30.1 C3.4,29.7 2.8,29 2.3,28.3 C2.2,28.2 2.2,28.1 2.1,28 C2,27.8 1.9,27.7 1.8,27.6 L1.5,27.3 L1.5,30.1 L1.4,30.1 Z M8.5,28.3 C8.7,28.3 8.9,28.3 9.2,28.3 C10.1,28.4 10.8,28.8 11.4,29.2 C12.2,29.7 12.9,30.1 14,30.1 C15.1,30.1 15.8,29.7 16.6,29.3 C17.3,28.9 17.9,28.5 18.9,28.4 C19.1,28.4 19.4,28.4 19.6,28.4 C20.3,28.4 20.8,28.5 21.3,28.6 L21.4,28.6 C21.8,28.7 22.2,28.7 22.4,28.7 C22.6,28.7 22.8,28.7 23,28.6 C23.4,28.4 23.8,27.9 24.2,27.4 L24.3,27.2 C24.7,26.6 25.2,26.1 25.7,25.8 C25.9,25.7 26.1,25.6 26.3,25.6 L26.5,25.6 L26.5,23.3 L26.2,23.5 C23.8,25.3 19.1,26.4 13.9,26.4 C8.8,26.4 4,25.3 1.6,23.6 L1.3,23.4 L1.3,26 L1.5,26 C1.7,26 1.9,26.1 2.2,26.2 C2.7,26.4 3,26.8 3.3,27.3 L3.5,27.6 C3.8,28.1 4.2,28.5 4.7,28.8 C4.9,28.9 5.1,28.9 5.3,28.9 C5.7,28.9 6.1,28.8 6.6,28.7 C7.2,28.5 7.8,28.3 8.5,28.3 Z M9.9,16.9 C5.1,17.5 1.4,19.2 1.4,20.9 C1.4,22.9 6.6,25.2 14,25.2 C21.4,25.2 26.6,22.9 26.6,20.9 C26.6,19.2 22.9,17.5 18,16.9 L17.8,16.9 L17.8,19.6 C17.8,20.9 15.8,21.5 14,21.5 C12.2,21.5 10.2,20.9 10.2,19.6 L10.2,16.9 L9.9,16.9 Z M14,11.4 C12.5,11.4 11.8,11.8 11.7,11.8 L11.6,11.9 L11.6,19.5 L11.7,19.6 C12,19.8 12.8,20 14,20 C15.5,20 16.2,19.6 16.3,19.6 L16.4,19.5 L16.4,11.9 L16.3,11.8 C15.9,11.6 15.2,11.4 14,11.4 Z M18.3,23 C18.1,23 17.9,22.9 17.8,22.8 C17.7,22.7 17.6,22.5 17.6,22.3 C17.6,22.1 17.7,21.9 17.8,21.8 C17.9,21.7 18.1,21.6 18.3,21.6 C18.5,21.6 18.7,21.7 18.8,21.8 C18.9,21.9 19,22.1 19,22.3 C19,22.5 18.9,22.7 18.8,22.8 C18.7,23 18.5,23 18.3,23 Z M9.7,23 C9.5,23 9.3,22.9 9.2,22.8 C9.1,22.7 9,22.5 9,22.3 C9,22.1 9.1,21.9 9.2,21.8 C9.3,21.7 9.5,21.6 9.7,21.6 C9.9,21.6 10.1,21.7 10.2,21.8 C10.3,21.9 10.4,22.1 10.4,22.3 C10.4,22.5 10.3,22.7 10.2,22.8 C10,23 9.8,23 9.7,23 Z M22.8,21 C22.6,21 22.4,20.9 22.3,20.8 C22.2,20.7 22.1,20.5 22.1,20.3 C22.1,20.1 22.2,19.9 22.3,19.8 C22.4,19.7 22.6,19.6 22.8,19.6 C23,19.6 23.2,19.7 23.3,19.8 C23.4,19.9 23.5,20.1 23.5,20.3 C23.5,20.5 23.4,20.7 23.3,20.8 C23.2,20.9 23,21 22.8,21 Z M5.5,21 C5.3,21 5.1,20.9 5,20.8 C4.9,20.7 4.8,20.5 4.8,20.3 C4.8,20.1 4.9,19.9 5,19.8 C5.1,19.7 5.3,19.6 5.5,19.6 C5.7,19.6 5.9,19.7 6,19.8 C6.1,19.9 6.2,20.1 6.2,20.3 C6.2,20.5 6.1,20.7 6,20.8 C5.9,20.9 5.7,21 5.5,21 Z M14,8.4 C12.7,8.4 11.8,8 11.3,7.1 C10.3,5 13.3,1.2 13.4,1 L14,0.3 L14.5,1 C14.6,1.2 17.6,4.9 16.6,7.1 C16.2,7.9 15.3,8.4 14,8.4 Z M13.8,3 C13,4.2 12.3,5.8 12.6,6.5 C12.8,6.9 13.6,7 14,7 C14.4,7 15.2,6.9 15.4,6.5 C15.7,5.8 15,4.3 14.2,3 L14,2.7 L13.8,3 Z" id="XMLID_50_"></path>
            </g>
        </g>
    </g>
</svg>