<?xml version="1.0" encoding="UTF-8"?>
<svg width="36px" height="36px" viewBox="0 0 36 36" version="1.1" xmlns="http://www.w3.org/2000/svg" xmlns:xlink="http://www.w3.org/1999/xlink">
    <!-- Generator: Sketch 47 (45396) - http://www.bohemiancoding.com/sketch -->
    <title>icon-weighttraget</title>
    <desc>Created with Sketch.</desc>
    <defs></defs>
    <g id="Symbols" stroke="none" stroke-width="1" fill="none" fill-rule="evenodd" opacity="0.5">
        <g id="Input/Icon/WeightTarget-Empty" fill-rule="nonzero" fill="#FFFFFF">
            <g id="icon-weighttraget">
                <path d="M34.7,1.2 C34,0.4 33.1,0 32.1,0 L3.9,0 C2.9,0 1.9,0.4 1.3,1.2 C0.6,1.9 0.3,2.9 0.4,3.9 L2.9,32.5 C3,33.4 3.4,34.2 4,34.8 C4.7,35.4 5.5,35.7 6.4,35.7 L29.6,35.7 C30.5,35.7 31.4,35.4 32,34.8 C32.7,34.2 33.1,33.4 33.1,32.5 L35.6,3.9 C35.7,2.9 35.4,1.9 34.7,1.2 Z M34.4,3.8 L32,32.4 C31.9,33.6 30.9,34.6 29.6,34.6 L6.4,34.6 C5.2,34.6 4.1,33.7 4,32.4 L1.6,3.8 C1.5,3.1 1.7,2.5 2.2,2 C2.7,1.5 3.3,1.2 4,1.2 L32.1,1.2 C32.8,1.2 33.4,1.5 33.9,2 C34.3,2.5 34.5,3.1 34.4,3.8 Z" id="XMLID_47_"></path>
                <path d="M25.2,7.2 C25.2,7.1 25.2,7.1 25.2,7.2 C24.4,5.9 23.4,4.9 22.2,4.2 C22.2,4.2 22.2,4.2 22.2,4.2 C22.2,4.2 22.2,4.2 22.2,4.2 C20.9,3.4 19.5,3 18,3 C16.5,3 15.1,3.4 13.9,4.1 C13.9,4.1 13.9,4.1 13.9,4.1 C13.9,4.1 13.9,4.1 13.9,4.1 C12.7,4.8 11.6,5.9 10.9,7.1 C10.9,7.1 10.9,7.1 10.9,7.1 C10.9,7.1 10.9,7.1 10.9,7.1 C10,8.4 9.6,9.8 9.6,11.3 C9.6,11.6 9.9,11.9 10.2,11.9 L25.7,11.9 C26,11.9 26.3,11.6 26.3,11.3 C26.4,9.8 26,8.4 25.2,7.2 C25.2,7.2 25.2,7.2 25.2,7.2 Z M18.6,10.7 L18.6,9.2 C18.6,8.9 18.3,8.6 18,8.6 C17.7,8.6 17.4,8.9 17.4,9.2 L17.4,10.7 L10.9,10.7 C11,9.8 11.2,9 11.6,8.2 L12.8,9 C12.9,9.1 13,9.1 13.1,9.1 C13.3,9.1 13.5,9 13.6,8.8 C13.8,8.5 13.7,8.1 13.4,8 L12.1,7.3 C12.6,6.6 13.2,6 13.9,5.5 L14.6,6.8 C14.8,6.9 15,7 15.2,7 C15.3,7 15.4,7 15.5,6.9 C15.8,6.7 15.9,6.4 15.7,6.1 L15,4.8 C15.8,4.4 16.6,4.2 17.5,4.1 L17.5,5.6 C17.5,5.9 17.8,6.2 18.1,6.2 C18.4,6.2 18.7,5.9 18.7,5.6 L18.7,4.2 C19.6,4.3 20.4,4.5 21.2,4.9 L20.5,6.2 C20.3,6.5 20.4,6.9 20.7,7 C20.6,7 20.7,7 20.8,7 C21,7 21.2,6.9 21.3,6.7 L22,5.4 C22.7,5.9 23.3,6.5 23.8,7.2 L22.6,8 C22.3,8.2 22.2,8.5 22.4,8.8 C22.5,9 22.7,9.1 22.9,9.1 C23,9.1 23.1,9.1 23.2,9 L24.5,8.3 C24.9,9.1 25.1,9.9 25.2,10.8 L18.6,10.8 L18.6,10.7 Z" id="XMLID_44_"></path>
                <path d="M14.3,16.23782 C13.2,16.23782 12.2,16.63782 11.4,17.53782 C9.8,19.23782 9.8,21.93782 11.4,23.63782 L17.6,30.13782 C17.8,30.33782 18.2,30.33782 18.4,30.13782 C18.4,30.13782 18.4,30.13782 18.4,30.13782 C20.5,27.93782 22.6,25.83782 24.6,23.63782 C26.2,21.93782 26.2,19.23782 24.6,17.53782 C23,15.83782 20.3,15.83782 18.7,17.53782 L18,18.33782 L17.3,17.53782 C16.4,16.63782 15.4,16.23782 14.3,16.23782 Z M14.3,17.33782 C15.1,17.33782 15.8,17.63782 16.4,18.23782 L17.6,19.43782 C17.8,19.63782 18.2,19.63782 18.4,19.43782 C18.4,19.43782 18.4,19.43782 18.4,19.43782 L19.5,18.23782 C20.7,17.03782 22.6,17.03782 23.8,18.23782 C25,19.43782 25,21.53782 23.8,22.73782 C21.9,24.73782 19.9,26.73782 18,28.83782 L12.2,22.73782 C11,21.43782 11,19.43782 12.2,18.23782 C12.8,17.63782 13.5,17.33782 14.3,17.33782 Z" id="XMLID_49_"></path>
            </g>
        </g>
    </g>
</svg>