<?xml version="1.0" encoding="UTF-8"?>
<svg width="24px" height="36px" viewBox="0 0 24 36" version="1.1" xmlns="http://www.w3.org/2000/svg" xmlns:xlink="http://www.w3.org/1999/xlink">
    <!-- Generator: Sketch 47 (45396) - http://www.bohemiancoding.com/sketch -->
    <title>icon-height</title>
    <desc>Created with Sketch.</desc>
    <defs></defs>
    <g id="Symbols" stroke="none" stroke-width="1" fill="none" fill-rule="evenodd" opacity="0.5">
        <g id="Input/Icon/Height-Empty" transform="translate(-6.000000, 0.000000)" fill-rule="nonzero" fill="#FFFFFF">
            <g id="icon-height" transform="translate(6.000000, 0.000000)">
                <path d="M11.8,23.1 L13.7,23.1 L13.7,35.3 C13.7,35.7 14,35.9 14.3,35.9 L17.5,35.9 L18.1,35.9 C19.9,35.9 21.3,34.5 21.3,32.7 L21.3,23.1 L23.2,23.1 C23.6,23.1 23.8,22.8 23.8,22.5 L23.8,13.5 C23.8,11.7 22.4,10.3 20.6,10.3 L20.3,10.3 C20.9,9.6 21.3,8.7 21.3,7.7 C21.3,5.6 19.6,3.8 17.4,3.8 C15.2,3.8 13.5,5.5 13.5,7.7 C13.5,8.7 13.9,9.6 14.5,10.3 L14.2,10.3 C12.4,10.3 11,11.7 11,13.5 L11,22.5 C11.1,22.9 11.4,23.1 11.8,23.1 Z M17.9,11.6 L17.5,12.8 L17.1,11.6 L17.9,11.6 Z M15,7.7 C15,6.3 16.2,5.1 17.6,5.1 C19,5.1 20.2,6.3 20.2,7.7 C20.2,9.1 19,10.3 17.6,10.3 C16.1,10.3 15,9.1 15,7.7 Z M12.4,13.5 C12.4,12.4 13.3,11.6 14.3,11.6 L15.8,11.6 L16.9,15 C17,15.3 17.2,15.4 17.5,15.4 C17.8,15.4 18,15.2 18.1,15 L19.2,11.6 L20.7,11.6 C21.8,11.6 22.6,12.5 22.6,13.5 L22.6,21.9 L21.3,21.9 L21.3,13.5 L20,13.5 L20,32.8 C20,33.9 19.1,34.7 18.1,34.7 L18.1,23.1 L16.8,23.1 L16.8,34.7 L15,34.7 L15,13.5 L13.7,13.5 L13.7,21.9 L12.4,21.9 L12.4,13.5 Z" id="XMLID_2883_"></path>
                <path d="M0.8,36 L7.2,36 C7.6,36 7.8,35.7 7.8,35.4 L7.8,0.6 C7.8,0.2 7.5,0 7.2,0 L0.8,0 C0.4,0 0.1,0.3 0.1,0.6 L0.1,35.3 C0.1,35.7 0.4,36 0.8,36 Z M1.4,1.3 L6.5,1.3 L6.5,3.9 L5.2,3.9 L5.2,5.2 L6.5,5.2 L6.5,7.8 L4,7.8 L4,9 L6.6,9 L6.6,11.6 L5.3,11.6 L5.3,12.9 L6.6,12.9 L6.6,15.5 L4,15.5 L4,16.8 L6.6,16.8 L6.6,19.4 L5.3,19.4 L5.3,20.7 L6.6,20.7 L6.6,23.3 L4,23.3 L4,24.6 L6.6,24.6 L6.6,27 L5.3,27 L5.3,28.3 L6.6,28.3 L6.6,30.9 L4,30.9 L4,32.2 L6.6,32.2 L6.6,34.8 L1.4,34.8 L1.4,1.3 Z" id="XMLID_2880_"></path>
            </g>
        </g>
    </g>
</svg>