<?xml version="1.0" encoding="UTF-8"?>
<svg width="90px" height="90px" viewBox="0 0 90 90" version="1.1" xmlns="http://www.w3.org/2000/svg" xmlns:xlink="http://www.w3.org/1999/xlink">
    <!-- Generator: Sketch 47 (45396) - http://www.bohemiancoding.com/sketch -->
    <title>Result/ReasonBox/4-Woman</title>
    <desc>Created with Sketch.</desc>
    <defs>
        <linearGradient x1="0%" y1="50%" x2="100%" y2="50%" id="linearGradient-1">
            <stop stop-color="#F53373" offset="0%"></stop>
            <stop stop-color="#BF51E8" offset="100%"></stop>
        </linearGradient>
    </defs>
    <g id="Symbols" stroke="none" stroke-width="1" fill="none" fill-rule="evenodd">
        <g id="Result/ReasonBox/4-Woman" fill-rule="nonzero" fill="url(#linearGradient-1)">
            <g id="icon-reason-4" transform="translate(45.000000, 23.000000)">
                <path d="M18.7306088,32 C18.500417,32 18.1934946,31.8403756 18.0400334,31.6807512 L11.2877398,24.657277 C10.9040867,24.258216 10.9040867,23.6197183 11.2877398,23.1408451 C11.5179316,22.9014085 11.824854,22.8215962 11.9783153,22.8215962 C12.2085071,22.8215962 12.5154295,22.9812207 12.6688907,23.1408451 L18.7306088,29.4460094 L32.3119266,15.3192488 C32.5421184,15.0798122 32.8490409,15 33.0025021,15 C33.2326939,15 33.5396163,15.1596244 33.6930776,15.3192488 C33.9232694,15.5586854 34,15.8779343 34,16.0375587 C34,16.2769953 33.8465388,16.5962441 33.6930776,16.7558685 L19.4211843,31.6807512 C19.2677231,31.9201878 18.9608007,32 18.7306088,32 Z" id="Shape"></path>
                <path d="M22.5,45 C10.078125,45 0,34.9043478 0,22.5391304 C0,10.0956522 10.078125,0 22.5,0 C34.921875,0 45,10.0956522 45,22.5391304 C44.921875,34.9043478 34.84375,45 22.5,45 Z M22.5,1.40869565 C10.859375,1.40869565 1.484375,10.8782609 1.484375,22.4608696 C1.484375,34.0434783 10.9375,43.5130435 22.5,43.5130435 C33.984375,43.5130435 43.4375,34.0434783 43.515625,22.4608696 C43.4375,10.8782609 34.0625,1.40869565 22.5,1.40869565 Z" id="Shape"></path>
            </g>
        </g>
    </g>
</svg>