<svg class="m-item-summary__graph-2" viewBox="0 0 81 209" version="1.1" xmlns="http://www.w3.org/2000/svg" xmlns:xlink="../www.w3.org/1999/xlink.html" style="opacity: 0.5; transform: matrix(0.7, 0, 0, 0.7, 0, -30);">
	<defs></defs>
	<g id="Symbols" stroke="none" stroke-width="1" fill="none" fill-rule="evenodd">
		<g class="stroke stroke-2" transform="translate(-32.000000, 1.000000)" stroke="#676283" stroke-width="2" fill="#1F1D2F">
			<g id="Page-1" transform="translate(33.000000, 0.000000)">
				<path d="M39.5,29 C31.4732143,29 25,22.5409091 25,14.5 C25,6.45909091 31.4732143,0 39.5,0 C47.5267857,0 54,6.45909091 54,14.5 C54,22.5409091 47.5267857,29 39.5,29 Z" id="Stroke-1"></path>
				<path d="M71.2831126,121.657492 C67.2284768,121.657492 63.9586093,118.107034 63.9586093,113.636086 L63.9586093,58.0122324 L60.4271523,58.0122324 L60.4271523,116.66055 L60.4271523,116.923547 L60.4271523,124.41896 L60.4271523,196.611621 C60.4271523,202.397554 56.1109272,207 50.8791391,207 C45.647351,207 41.3311258,202.397554 41.3311258,196.611621 L41.3311258,126.12844 L39.5,126.12844 L37.1456954,126.12844 L37.1456954,196.611621 C37.1456954,202.397554 32.8294702,207 27.5976821,207 C22.365894,207 18.0496689,202.397554 18.0496689,196.611621 L18.0496689,126.12844 L18.0496689,106.535168 L18.0496689,58.1437309 L14.6490066,58.1437309 L14.6490066,104.299694 L14.6490066,113.767584 C14.6490066,118.107034 11.3791391,121.788991 7.32450331,121.788991 C3.26986755,121.788991 0,118.238532 0,113.767584 L0,89.440367 L0,52.3577982 C0,51.7003058 0.130794702,51.0428135 0.261589404,50.5168196 C1.56953642,42.1009174 8.63245033,35.5259939 17.3956954,35 L19.0960265,35 L59.9039735,35 L61.6043046,35 C70.3675497,35.5259939 77.4304636,42.1009174 78.7384106,50.5168196 C78.8692053,51.1743119 79,51.7003058 79,52.3577982 L79,113.636086 C78.7384106,118.107034 75.3377483,121.657492 71.2831126,121.657492 Z" id="Stroke-3"></path>
			</g>
		</g>
	</g>
</svg>
