<svg class="m-item-summary__graph-2" viewBox="0 0 146 209" version="1.1" xmlns="http://www.w3.org/2000/svg" xmlns:xlink="../www.w3.org/1999/xlink.html" style="opacity: 1; transform: matrix(1, 0, 0, 1, 0, 0);">
	<defs></defs>
	<g id="Symbols" stroke="none" stroke-width="1" fill="none" fill-rule="evenodd">
		<g class="stroke stroke-1" transform="translate(1.000000, 1.000000)" stroke="#676283" stroke-width="2" fill="#1F1D2F">
			<g id="Page-1">
				<path d="M73.5,29 C65.4732143,29 59,22.5409091 59,14.5 C59,6.45909091 65.4732143,0 73.5,0 C81.5267857,0 88,6.45909091 88,14.5 C88,22.5409091 81.5267857,29 73.5,29 Z" id="Stroke-1"></path>
				<path d="M141.502404,17.0878885 L134.772509,23.7050352 L94.9209776,62.878544 L94.9209776,116.080404 L94.9209776,116.34509 L94.9209776,123.888637 L94.9209776,196.544908 C94.9209776,202.367997 90.56634,207 85.2879915,207 C80.0096429,207 75.6550054,202.367997 75.6550054,196.544908 L75.6550054,125.609095 L73.8075834,125.609095 L71.3003678,125.609095 L71.3003678,196.544908 C71.3003678,202.367997 66.9457302,207 61.6673817,207 C56.3890331,207 52.0343956,202.367997 52.0343956,196.544908 L52.0343956,125.609095 L52.0343956,105.889998 L52.0343956,66.0547744 L9.27977227,23.7050352 L2.54987786,17.0878885 C-0.617131269,14.044001 -0.881048697,9.14731241 2.02204301,6.10342491 C4.793176,3.19188034 9.67564841,3.32422328 12.8426575,6.36811078 L30.2612078,23.4403494 L52.1663543,45.0122478 L52.1663543,44.7475619 L52.5622304,44.7475619 C55.3333634,38.6597869 61.2715055,34.1601271 68.3972761,33.7630983 L70.1127394,33.7630983 L76.9745925,33.7630983 L78.6900558,33.7630983 C85.1560328,34.1601271 90.8302575,37.8657293 93.7333492,43.1594467 L113.659115,23.4403494 L131.077665,6.36811078 C134.244674,3.32422328 139.127147,3.19188034 142.030238,6.10342491 C144.801371,9.14731241 144.669413,14.044001 141.502404,17.0878885 Z" id="Stroke-3"></path>
			</g>
		</g>
	</g>
</svg>
