<svg class="m-item-summary__graph-2" viewBox="0 0 86 207" version="1.1" xmlns="http://www.w3.org/2000/svg" xmlns:xlink="../www.w3.org/1999/xlink.html" style="opacity: 0.2; transform: matrix(0.5, 0, 0, 0.5, 0, -50);">
	<defs></defs>
	<g id="Symbols" stroke="none" stroke-width="1" fill="none" fill-rule="evenodd">
		<g class="stroke stroke-3" transform="translate(-30.000000, 0.000000)" stroke="#676283" stroke-width="2" fill="#1F1D2F">
			<g id="Page-1" transform="translate(31.000000, 1.000000)">
				<path d="M40,29 C31.6964286,29 25,22.5409091 25,14.5 C25,6.45909091 31.6964286,0 40,0 C48.3035714,0 55,6.45909091 55,14.5 C55,22.5409091 48.3035714,29 40,29 Z" id="Stroke-1"></path>
				<path d="M44.00861,76.0641711 L39.6863358,80.8976318 L35.3640616,76.0641711 L39.1624238,42.8831169 L40.3412259,42.8831169 L44.00861,76.0641711 Z M39.6863358,35.4369748 C41.2580719,35.4369748 42.436874,36.7433155 42.436874,38.1802903 C42.436874,39.7478992 41.1270939,40.9236058 39.6863358,40.9236058 C38.1145998,40.9236058 36.9357977,39.6172651 36.9357977,38.1802903 C36.8048197,36.6126814 38.1145998,35.4369748 39.6863358,35.4369748 Z M78.8487596,49.4148205 C77.5389796,41.0542399 70.4661672,34.5225363 61.6906408,34 L59.9879268,34 L19.1227889,34 L17.4200748,34 C8.6445484,34.5225363 1.57173607,41.0542399 0.261956012,49.4148205 C0.130978006,50.0679908 0,50.5905271 0,51.2436975 L0,88.0825057 L0,112.249809 C0,116.560733 3.27445015,120.218487 7.33476834,120.218487 C11.3950865,120.218487 14.6695367,116.691367 14.6695367,112.249809 L14.6695367,102.844156 L14.6695367,56.9915966 L18.0749648,56.9915966 L18.0749648,105.195569 L18.0749648,124.660046 L18.0749648,194.679908 C18.0749648,200.427807 22.397239,205 27.6363593,205 C32.8754795,205 37.1977537,200.427807 37.1977537,194.679908 L37.1977537,124.529412 L39.6863358,124.529412 L41.5200279,124.529412 L41.5200279,194.549274 C41.5200279,200.297173 45.8423021,204.869366 51.0814223,204.869366 C56.3205426,204.869366 60.6428168,200.297173 60.6428168,194.549274 L60.6428168,122.831169 L60.6428168,115.385027 L60.6428168,115.123759 L60.6428168,56.8609626 L64.179223,56.8609626 L64.179223,112.119175 C64.179223,116.430099 67.4536731,120.087853 71.5139913,120.087853 C75.5743095,120.087853 78.8487596,116.560733 78.8487596,112.119175 L78.8487596,51.2436975 C79.1107156,50.5905271 78.9797376,49.9373568 78.8487596,49.4148205 Z" id="Stroke-3"></path>
				<path d="M70,127 L70,124.290323 C70,123.645161 70.4705882,123 71.1764706,123 L72.8235294,123 C73.4117647,123 74,123.516129 74,124.290323 L74,127 L70,127 Z" id="Stroke-5"></path>
				<path d="M81.5135135,175.869688 L78.8108108,174.827195 L76.1081081,175.869688 L74.7567568,175.869688 L72.0540541,174.827195 L69.3513514,175.869688 L68,175.869688 L68,134.169972 C68.2702703,131.824363 70.2972973,130 72.8648649,130 C75.4324324,130 77.4594595,131.824363 77.7297297,134.300283 L83,176 L81.5135135,176 L81.5135135,175.869688 Z" id="Stroke-7"></path>
			</g>
		</g>
	</g>
</svg>
