<svg class="m-item-summary__graph-2" viewBox="0 0 102 195" version="1.1" xmlns="http://www.w3.org/2000/svg" xmlns:xlink="../www.w3.org/1999/xlink.html" style="transform: matrix(0, 0, 0, 0, 0, 0);">
	<defs></defs>
	<g id="Symbols" stroke="none" stroke-width="1" fill="none" fill-rule="evenodd">
		<g class="stroke stroke-4" transform="translate(-21.000000, -13.000000)" stroke="#676283" stroke-width="2" fill="#1F1D2F">
			<g id="Page-1" transform="translate(22.000000, 14.000000)">
				<path d="M41,28 C33.293578,28 27,21.7196262 27,14 C27,6.28037383 33.293578,0 41,0 C48.706422,0 55,6.28037383 55,14 C55,21.7196262 48.706422,28 41,28 Z" id="Stroke-1"></path>
				<path d="M98.18,193 C97.14,193 96.36,192.216995 96.36,191.172989 L96.36,113.525038 C96.36,111.567527 94.93,110.654021 93.5,110.654021 C92.07,110.654021 90.64,111.698027 90.64,113.525038 L90.64,114.047041 C90.64,114.960546 89.86,115.743551 88.82,115.743551 C87.78,115.743551 87,114.960546 87,114.047041 L87,113.394537 C87,109.218513 90.25,107 93.5,107 C96.75,107.130501 100,109.218513 100,113.394537 L100,191.30349 C100,192.216995 99.22,193 98.18,193 Z" id="Stroke-3"></path>
				<path d="M96.9484464,103.617363 C93.8084158,106.649518 88.5750313,106.385852 85.0424968,102.958199 L66.0714783,84.3697749 L66.0714783,54.3118971 L63.1931169,54.3118971 L63.1931169,182.189711 C63.1931169,188.122186 58.7447401,193 53.2496865,193 C47.7546328,193 43.3062561,188.122186 43.3062561,182.189711 L43.3062561,116.800643 L40.6895639,116.800643 L38.7270447,116.800643 L38.7270447,151.209003 L38.7270447,182.189711 C38.7270447,188.122186 34.278668,193 28.7836143,193 C23.2885607,193 18.8401839,188.122186 18.8401839,182.189711 L18.8401839,107.176849 L18.8401839,106.913183 L18.8401839,54.4437299 L15.9618225,54.4437299 L15.9618225,81.6012862 L15.9618225,102.562701 C15.9618225,107.308682 12.429288,111.263666 7.98091124,111.263666 C3.53253448,111.263666 0,107.440514 0,102.562701 L0,76.3279743 L0,47.85209 C0,47.192926 0.130834611,46.5337621 0.261669221,45.8745981 C1.57001533,36.9099678 8.89675352,29.9228296 18.0551763,29 L18.7093493,29 L29.9611258,29 C31.4003065,33.6141479 35.7178487,37.0418006 40.6895639,37.0418006 C45.7921137,37.0418006 50.1096558,33.6141479 51.4180019,29 L62.9314477,29 L64.1089592,29 C72.6132088,30.0546624 79.285774,36.5144695 80.4632855,44.8199357 C80.5941201,45.4790997 80.7249547,46.1382637 80.7249547,46.7974277 L80.7249547,77.1189711 L95.9017695,92.0160772 C99.6959732,95.3118971 99.9576424,100.453376 96.9484464,103.617363 Z" id="Stroke-5"></path>
			</g>
		</g>
	</g>
</svg>
